<mxfile host="app.diagrams.net" agent="Mozilla/5.0 (Windows NT 10.0; Win64; x64) AppleWebKit/537.36 (KHTML, like Gecko) Chrome/128.0.0.0 Safari/537.36" version="24.7.12">
  <diagram name="第 1 页" id="qiSRcWJFCNiIEZGMFFEE">
    <mxGraphModel dx="1434" dy="780" grid="1" gridSize="10" guides="1" tooltips="1" connect="1" arrows="1" fold="1" page="1" pageScale="1" pageWidth="827" pageHeight="1169" math="0" shadow="0">
      <root>
        <mxCell id="0" />
        <mxCell id="1" parent="0" />
        <mxCell id="kRwWgk1dzEiwsxOXkmfC-1" value="" style="rounded=0;whiteSpace=wrap;html=1;fillColor=#0050ef;strokeColor=#001DBC;fontColor=#ffffff;opacity=50;strokeWidth=5;" parent="1" vertex="1">
          <mxGeometry x="160" y="105" width="200" height="240" as="geometry" />
        </mxCell>
        <mxCell id="kRwWgk1dzEiwsxOXkmfC-2" value="" style="rounded=0;whiteSpace=wrap;html=1;fillColor=#0050ef;strokeColor=#001DBC;fontColor=#ffffff;opacity=50;strokeWidth=5;" parent="1" vertex="1">
          <mxGeometry x="360" y="105" width="200" height="240" as="geometry" />
        </mxCell>
        <mxCell id="kRwWgk1dzEiwsxOXkmfC-3" value="" style="rounded=0;whiteSpace=wrap;html=1;fillColor=#0050ef;strokeColor=#001DBC;fontColor=#ffffff;opacity=50;strokeWidth=5;" parent="1" vertex="1">
          <mxGeometry x="160" y="345" width="200" height="240" as="geometry" />
        </mxCell>
        <mxCell id="kRwWgk1dzEiwsxOXkmfC-4" value="" style="rounded=0;whiteSpace=wrap;html=1;fillColor=#0050ef;strokeColor=#001DBC;fontColor=#ffffff;opacity=50;strokeWidth=5;" parent="1" vertex="1">
          <mxGeometry x="360" y="345" width="200" height="240" as="geometry" />
        </mxCell>
        <mxCell id="StM3xn72SZKsdbeQE45I-1" value="scipy.fftpack.dctn" style="text;strokeColor=none;align=center;fillColor=none;html=1;verticalAlign=middle;whiteSpace=wrap;rounded=0;fontSize=25;fontStyle=1;fontColor=#003366;" vertex="1" parent="1">
          <mxGeometry x="230" y="20" width="260" height="30" as="geometry" />
        </mxCell>
        <mxCell id="StM3xn72SZKsdbeQE45I-2" value="quadrant&lt;div&gt;1&lt;/div&gt;" style="text;strokeColor=none;align=center;fillColor=none;html=1;verticalAlign=middle;whiteSpace=wrap;rounded=0;fontSize=25;fontStyle=1;fontColor=#4C0099;" vertex="1" parent="1">
          <mxGeometry x="150" y="125" width="140" height="30" as="geometry" />
        </mxCell>
        <mxCell id="StM3xn72SZKsdbeQE45I-3" value="quadrant&lt;div&gt;2&lt;/div&gt;" style="text;strokeColor=none;align=center;fillColor=none;html=1;verticalAlign=middle;whiteSpace=wrap;rounded=0;fontSize=25;fontStyle=1;fontColor=#4C0099;" vertex="1" parent="1">
          <mxGeometry x="350" y="125" width="140" height="30" as="geometry" />
        </mxCell>
        <mxCell id="StM3xn72SZKsdbeQE45I-4" value="quadrant&lt;div&gt;3&lt;/div&gt;" style="text;strokeColor=none;align=center;fillColor=none;html=1;verticalAlign=middle;whiteSpace=wrap;rounded=0;fontSize=25;fontStyle=1;fontColor=#4C0099;" vertex="1" parent="1">
          <mxGeometry x="150" y="365" width="140" height="30" as="geometry" />
        </mxCell>
        <mxCell id="StM3xn72SZKsdbeQE45I-5" value="quadrant&lt;div&gt;4&lt;/div&gt;" style="text;strokeColor=none;align=center;fillColor=none;html=1;verticalAlign=middle;whiteSpace=wrap;rounded=0;fontSize=25;fontStyle=1;fontColor=#4C0099;" vertex="1" parent="1">
          <mxGeometry x="350" y="365" width="140" height="30" as="geometry" />
        </mxCell>
        <mxCell id="StM3xn72SZKsdbeQE45I-6" value="" style="endArrow=classic;startArrow=classic;html=1;rounded=0;fontSize=18;strokeWidth=6;strokeColor=#663300;" edge="1" parent="1">
          <mxGeometry width="50" height="50" relative="1" as="geometry">
            <mxPoint x="160" y="265" as="sourcePoint" />
            <mxPoint x="360" y="265" as="targetPoint" />
          </mxGeometry>
        </mxCell>
        <mxCell id="StM3xn72SZKsdbeQE45I-7" value="" style="shape=flexArrow;endArrow=classic;startArrow=classic;html=1;rounded=0;strokeWidth=4;" edge="1" parent="1">
          <mxGeometry width="100" height="100" relative="1" as="geometry">
            <mxPoint x="160" y="85" as="sourcePoint" />
            <mxPoint x="560" y="85" as="targetPoint" />
          </mxGeometry>
        </mxCell>
        <mxCell id="StM3xn72SZKsdbeQE45I-8" value="" style="shape=flexArrow;endArrow=classic;startArrow=classic;html=1;rounded=0;strokeWidth=4;" edge="1" parent="1">
          <mxGeometry width="100" height="100" relative="1" as="geometry">
            <mxPoint x="130" y="105" as="sourcePoint" />
            <mxPoint x="130" y="580" as="targetPoint" />
          </mxGeometry>
        </mxCell>
        <mxCell id="StM3xn72SZKsdbeQE45I-9" value="w" style="text;strokeColor=none;align=center;fillColor=none;html=1;verticalAlign=middle;whiteSpace=wrap;rounded=0;fontSize=25;fontStyle=1;fontColor=#000000;" vertex="1" parent="1">
          <mxGeometry x="345" y="50" width="30" height="30" as="geometry" />
        </mxCell>
        <mxCell id="StM3xn72SZKsdbeQE45I-10" value="h" style="text;strokeColor=none;align=center;fillColor=none;html=1;verticalAlign=middle;whiteSpace=wrap;rounded=0;fontSize=25;fontStyle=1;fontColor=#000000;" vertex="1" parent="1">
          <mxGeometry x="90" y="330" width="30" height="30" as="geometry" />
        </mxCell>
        <mxCell id="StM3xn72SZKsdbeQE45I-11" value="w*pass_rate" style="text;strokeColor=none;align=center;fillColor=none;html=1;verticalAlign=middle;whiteSpace=wrap;rounded=0;fontSize=25;fontStyle=1;fontColor=#663300;" vertex="1" parent="1">
          <mxGeometry x="210" y="220" width="120" height="30" as="geometry" />
        </mxCell>
        <mxCell id="StM3xn72SZKsdbeQE45I-13" value="" style="endArrow=classic;startArrow=classic;html=1;rounded=0;fontSize=18;strokeWidth=6;strokeColor=#663300;" edge="1" parent="1">
          <mxGeometry width="50" height="50" relative="1" as="geometry">
            <mxPoint x="570" y="105" as="sourcePoint" />
            <mxPoint x="570" y="340" as="targetPoint" />
          </mxGeometry>
        </mxCell>
        <mxCell id="StM3xn72SZKsdbeQE45I-14" value="h*pass_rate" style="text;strokeColor=none;align=center;fillColor=none;html=1;verticalAlign=middle;whiteSpace=wrap;rounded=0;fontSize=25;fontStyle=1;fontColor=#663300;" vertex="1" parent="1">
          <mxGeometry x="590" y="210" width="120" height="30" as="geometry" />
        </mxCell>
      </root>
    </mxGraphModel>
  </diagram>
</mxfile>
